<svg id="Capa_1" enable-background="new 0 0 512.271 512.271" height="512" viewBox="0 0 512.271 512.271" width="512" xmlns="http://www.w3.org/2000/svg"><g><path d="m440.29 413.164h30v30.083h-30z"/><path d="m371.433 413.164h30v30.083h-30z"/><path d="m302.576 413.164h30v30.083h-30z"/><path d="m405.671 344.497h30v30.083h-30z"/><path d="m336.814 344.497h30v30.083h-30z"/><path d="m405.671 482.188h30v30.083h-30z"/><path d="m336.814 482.188h30v30.083h-30z"/><path d="m76.409 221.801c-19.014 0-34.429 15.414-34.429 34.429 0 19.014 15.414 34.428 34.429 34.428h26.852c-4.754-10.512-7.424-22.161-7.424-34.428 0-12.268 2.67-23.917 7.424-34.429z"/><path d="m179.695 202.372c-29.697 0-53.857 24.16-53.857 53.857 0 29.696 24.16 53.856 53.857 53.856s53.857-24.16 53.857-53.856c0-29.697-24.16-53.857-53.857-53.857z"/><path d="m351.838 137.714v45.203h68.857v-45.203c0-76.057-61.657-137.714-137.714-137.714-76.057 0-137.714 61.657-137.714 137.714v42.082c10.512-4.754 22.161-7.424 34.429-7.424s23.916 2.67 34.429 7.424v-42.082c0-38.029 30.828-68.857 68.857-68.857 38.027 0 68.856 30.829 68.856 68.857z"/><path d="m145.266 332.662v179.609h68.857v-179.609c-10.512 4.754-22.161 7.424-34.429 7.424s-23.915-2.67-34.428-7.424z"/><path d="m470.124 280.906c0-27.964-13.774-52.751-34.88-67.989h-97.955c-21.106 15.239-34.88 40.025-34.88 67.989v15h167.714v-15z"/></g></svg>