<?xml version="1.0" encoding="iso-8859-1"?>
<!-- Generator: Adobe Illustrator 19.0.0, SVG Export Plug-In . SVG Version: 6.00 Build 0)  -->
<svg version="1.1" id="Capa_1" xmlns="http://www.w3.org/2000/svg" xmlns:xlink="http://www.w3.org/1999/xlink" x="0px" y="0px"
	 viewBox="0 0 490.88 490.88" style="enable-background:new 0 0 490.88 490.88;" xml:space="preserve">
<path style="fill:#4CAF50;" d="M245.419,0C109.866,0.012-0.012,109.909,0,245.461c0.012,135.553,109.909,245.43,245.461,245.419
	c135.544-0.012,245.419-109.896,245.419-245.44C490.727,109.942,380.916,0.141,245.419,0z"/>
<path style="fill:#FAFAFA;" d="M287.957,384c-2.831,0.005-5.548-1.115-7.552-3.115l-128-128c-4.164-4.165-4.164-10.917,0-15.083
	l128-128c4.237-4.092,10.99-3.975,15.083,0.262c3.992,4.134,3.992,10.687,0,14.82L175.019,245.333l120.448,120.448
	c4.171,4.16,4.179,10.914,0.019,15.085c-2.006,2.011-4.731,3.139-7.571,3.134L287.957,384z"/>
<g>
</g>
<g>
</g>
<g>
</g>
<g>
</g>
<g>
</g>
<g>
</g>
<g>
</g>
<g>
</g>
<g>
</g>
<g>
</g>
<g>
</g>
<g>
</g>
<g>
</g>
<g>
</g>
<g>
</g>
</svg>
