<?xml version="1.0" encoding="iso-8859-1"?>
<!-- Generator: Adobe Illustrator 19.0.0, SVG Export Plug-In . SVG Version: 6.00 Build 0)  -->
<svg version="1.1" id="Capa_1" xmlns="http://www.w3.org/2000/svg" xmlns:xlink="http://www.w3.org/1999/xlink" x="0px" y="0px"
	 viewBox="0 0 512 512" style="enable-background:new 0 0 512 512;" xml:space="preserve">
<g>
	<g>
		<g>
			<path d="M492,352c11.046,0,20-8.954,20-20V80c0-44.112-35.888-80-80-80H80C35.888,0,0,35.888,0,80v352c0,44.112,35.888,80,80,80
				h352c44.112,0,80-35.888,80-80c0-11.046-8.954-20-20-20c-11.046,0-20,8.954-20,20c0,22.056-17.944,40-40,40H80
				c-22.056,0-40-17.944-40-40V80c0-22.056,17.944-40,40-40h352c22.056,0,40,17.944,40,40v252C472,343.046,480.954,352,492,352z"/>
			<path d="M281,260h-31c-11.046,0-20,8.954-20,20c0,11.046,8.954,20,20,20h31c55.14,0,100-44.86,100-100s-44.86-100-100-100H170
				c-11.046,0-20,8.954-20,20v272c0,11.046,8.954,20,20,20s20-8.954,20-20V140h91c33.084,0,60,26.916,60,60S314.084,260,281,260z"/>
		</g>
	</g>
</g>
<g>
</g>
<g>
</g>
<g>
</g>
<g>
</g>
<g>
</g>
<g>
</g>
<g>
</g>
<g>
</g>
<g>
</g>
<g>
</g>
<g>
</g>
<g>
</g>
<g>
</g>
<g>
</g>
<g>
</g>
</svg>
