<?xml version="1.0" encoding="UTF-8"?>
<svg width="27px" height="27px" viewBox="0 0 27 27" version="1.1" xmlns="http://www.w3.org/2000/svg" xmlns:xlink="http://www.w3.org/1999/xlink">
    <title>search</title>
    <g id="Page-1" stroke="none" stroke-width="1" fill="none" fill-rule="evenodd">
        <g id="Desktop-HD" transform="translate(-1077.000000, -277.000000)" fill="#FFFFFF" fill-rule="nonzero">
            <g id="Group-2" transform="translate(336.000000, 270.000000)">
                <g id="search" transform="translate(741.000000, 7.000000)">
                    <path d="M26.8352244,25.2444288 L18.9919143,17.4011206 C20.479555,15.564536 21.3750398,13.2296632 21.3750398,10.6875437 C21.3750398,4.79446288 16.5805758,0 10.6874935,0 C4.79441131,0 0,4.79446288 0,10.6875437 C0,16.5806245 4.79446405,21.3750873 10.6875463,21.3750873 C13.2296664,21.3750873 15.5645398,20.47955 17.4011249,18.9919624 L25.244435,26.8352706 C25.4641797,27.0549098 25.8202432,27.0549098 26.0399879,26.8352706 L26.8352771,26.0399288 C27.0549164,25.8202369 27.0549164,25.464068 26.8352244,25.2444288 Z M10.6875463,19.1250643 C6.03483261,19.1250643 2.25002362,15.3402562 2.25002362,10.6875437 C2.25002362,6.03483114 6.03483261,2.25002307 10.6875463,2.25002307 C15.3402599,2.25002307 19.1250689,6.03483114 19.1250689,10.6875437 C19.1250689,15.3402562 15.3402599,19.1250643 10.6875463,19.1250643 Z" id="Shape"></path>
                </g>
            </g>
        </g>
    </g>
</svg>