<?xml version="1.0" encoding="UTF-8"?>
<svg width="63px" height="63px" viewBox="0 0 63 63" version="1.1" xmlns="http://www.w3.org/2000/svg" xmlns:xlink="http://www.w3.org/1999/xlink">
    <title>left copy</title>
    <defs>
        <path d="M27.4976471,0 C12.3097906,0.00134452412 -0.00134452412,12.3146085 0,27.5023529 C0.00134452412,42.6902094 12.3146085,55.0012325 27.5023529,55 C42.689201,54.9986555 55,42.6868481 55,27.5 C54.9828573,12.3183059 42.6792291,0.0157981584 27.4976471,0 Z" id="path-1"></path>
        <filter x="-7.3%" y="-3.6%" width="114.5%" height="114.5%" filterUnits="objectBoundingBox" id="filter-2">
            <feGaussianBlur stdDeviation="-0 -0" in="SourceGraphic"></feGaussianBlur>
        </filter>
        <filter x="-12.7%" y="-9.1%" width="125.5%" height="125.5%" filterUnits="objectBoundingBox" id="filter-3">
            <feOffset dx="0" dy="2" in="SourceAlpha" result="shadowOffsetOuter1"></feOffset>
            <feGaussianBlur stdDeviation="2" in="shadowOffsetOuter1" result="shadowBlurOuter1"></feGaussianBlur>
            <feColorMatrix values="0 0 0 0 0.60082654   0 0 0 0 0.60082654   0 0 0 0 0.60082654  0 0 0 0.5 0" type="matrix" in="shadowBlurOuter1"></feColorMatrix>
        </filter>
    </defs>
    <g id="Page-1" stroke="none" stroke-width="1" fill="none" fill-rule="evenodd">
        <g id="Elegir-habitación" transform="translate(-1181.000000, -531.000000)">
            <g id="left-copy" transform="translate(1212.500000, 564.500000) rotate(-180.000000) translate(-1212.500000, -564.500000) translate(1185.000000, 537.000000)">
                <g id="Path" opacity="0.509672619" filter="url(#filter-2)">
                    <use fill="black" fill-opacity="1" filter="url(#filter-3)" xlink:href="#path-1"></use>
                    <use fill="#E1E1E1" fill-rule="evenodd" xlink:href="#path-1"></use>
                </g>
                <path d="M32.7882171,43 C32.4659064,43.0005573 32.1565746,42.8753012 31.9284182,42.6516295 L17.3555551,28.3366425 C16.8814816,27.8708462 16.8814816,27.1157307 17.3555551,26.6498226 L31.9284182,12.3348356 C32.4108027,11.8772033 33.1796351,11.8902881 33.6456252,12.3641366 C34.1001163,12.8264659 34.1001163,13.5593261 33.6456252,14.0215436 L19.9301701,27.4920583 L33.6432343,40.962461 C34.1181047,41.4276981 34.1190155,42.1830374 33.6453975,42.6495046 C33.4170134,42.8744065 33.1067708,43.0005573 32.7834354,43 L32.7882171,43 Z" id="Path" fill="#FFFFFF" fill-rule="nonzero"></path>
            </g>
        </g>
    </g>
</svg>